<svg width="64" height="64" viewBox="0 0 64 64" fill="none" xmlns="http://www.w3.org/2000/svg">
<path d="M52.3196 20.9198C52.0445 20.6429 51.7173 20.4231 51.3569 20.2731C50.9965 20.1231 50.61 20.0459 50.2196 20.0459C49.8292 20.0459 49.4427 20.1231 49.0823 20.2731C48.7219 20.4231 48.3947 20.6429 48.1196 20.9198L32.1196 36.9198L16.1196 20.9198C15.5737 20.4195 14.8601 20.142 14.1196 20.142C13.3791 20.142 12.6655 20.4195 12.1196 20.9198C11.6106 21.4614 11.3271 22.1766 11.3271 22.9198C11.3271 23.6631 11.6106 24.3783 12.1196 24.9198L30.1596 42.9598C30.6135 43.5336 31.274 43.9069 31.9996 43.9998C32.3938 44.0017 32.7843 43.9248 33.1484 43.7737C33.5124 43.6226 33.8426 43.4003 34.1196 43.1198L52.1596 25.0798C52.4461 24.8189 52.6777 24.5036 52.8411 24.1523C53.0044 23.8009 53.0962 23.4206 53.1111 23.0334C53.126 22.6462 53.0637 22.2599 52.9278 21.897C52.7919 21.5342 52.5852 21.202 52.3196 20.9198Z" fill="black"/>
</svg>
