<svg width="32" height="32" viewBox="0 0 32 32" fill="none" xmlns="http://www.w3.org/2000/svg">
<path d="M16 4C17.2377 4 18.4247 4.49167 19.2998 5.36684C20.175 6.242 20.6667 7.42899 20.6667 8.66667C20.6667 9.90434 20.175 11.0913 19.2998 11.9665C18.4247 12.8417 17.2377 13.3333 16 13.3333C14.7623 13.3333 13.5753 12.8417 12.7002 11.9665C11.825 11.0913 11.3333 9.90434 11.3333 8.66667C11.3333 7.42899 11.825 6.242 12.7002 5.36684C13.5753 4.49167 14.7623 4 16 4ZM6.66667 7.33333C7.3846 7.33354 8.08924 7.52698 8.70667 7.89333C8.49766 9.79928 9.03795 11.7118 10.2133 13.2267C9.88669 13.8572 9.39809 14.3894 8.79773 14.7686C8.19736 15.1478 7.50687 15.3603 6.79719 15.3844C6.0875 15.4084 5.38421 15.2431 4.75954 14.9055C4.13487 14.5678 3.61135 14.0699 3.24276 13.463C2.87416 12.856 2.67378 12.1619 2.66219 11.4519C2.6506 10.7419 2.82823 10.0417 3.17682 9.42301C3.52542 8.80437 4.03241 8.28968 4.64573 7.93181C5.25905 7.57393 5.95657 7.38578 6.66667 7.38667M25.3333 7.38667C26.0434 7.38578 26.741 7.57393 27.3543 7.93181C27.9676 8.28968 28.4746 8.80437 28.8232 9.42301C29.1718 10.0417 29.3494 10.7419 29.3378 11.4519C29.3262 12.1619 29.1258 12.856 28.7572 13.463C28.3886 14.0699 27.8651 14.5678 27.2405 14.9055C26.6158 15.2431 25.9125 15.4084 25.2028 15.3844C24.4931 15.3603 23.8026 15.1478 23.2023 14.7686C22.6019 14.3894 22.1133 13.8572 21.7867 13.2267C22.962 11.7118 23.5023 9.79928 23.2933 7.89333C23.9108 7.52698 24.6154 7.33354 25.3333 7.33333M7.33333 21C7.33333 18.24 11.2133 16 16 16C20.7867 16 24.6667 18.24 24.6667 21V26.3333H7.33333V21ZM0 26.3333V21.3333C0 19.48 2.52 17.92 5.93333 17.4667C5.09692 18.4521 4.6468 19.7076 4.66667 21V26.3333H0ZM32 26.3333H27.3333V21C27.3532 19.7076 26.9031 18.4521 26.0667 17.4667C29.48 17.92 32 19.48 32 21.3333V26.3333Z" fill="#565F74"/>
<path d="M16.0002 4C17.2378 4 18.4248 4.49167 19.3 5.36684C20.1752 6.242 20.6668 7.42899 20.6668 8.66667C20.6668 9.90434 20.1752 11.0913 19.3 11.9665C18.4248 12.8417 17.2378 13.3333 16.0002 13.3333C14.7625 13.3333 13.5755 12.8417 12.7003 11.9665C11.8252 11.0913 11.3335 9.90434 11.3335 8.66667C11.3335 7.42899 11.8252 6.242 12.7003 5.36684C13.5755 4.49167 14.7625 4 16.0002 4ZM7.3335 21C7.3335 18.24 11.2135 16 16.0002 16C20.7868 16 24.6668 18.24 24.6668 21V26.3333H7.3335V21Z" fill="#3370FF"/>
</svg>
