<svg width="32" height="32" viewBox="0 0 32 32" fill="none" xmlns="http://www.w3.org/2000/svg">
<path d="M4.68829 2H28.3133C29.244 2 30 2.72944 30 3.62537V8.37463C30 9.27215 29.244 10 28.3117 10H4.68829C3.75759 10 3 9.27215 3 8.37463V3.62537C3 2.72785 3.756 2 4.68829 2ZM7.20565 5.2C6.9894 5.19618 6.78047 5.27819 6.62473 5.42804C6.46899 5.57788 6.37917 5.7833 6.375 5.99921C6.375 6.44162 6.74665 6.8 7.20565 6.8H12.2944C12.4016 6.80189 12.5081 6.78267 12.6079 6.74345C12.7076 6.70423 12.7987 6.64577 12.8758 6.5714C12.953 6.49704 13.0147 6.40823 13.0574 6.31005C13.1002 6.21187 13.1231 6.10625 13.125 5.99921C13.1208 5.7833 13.031 5.57788 12.8753 5.42804C12.7195 5.27819 12.5106 5.19618 12.2944 5.2H7.20565Z" fill="#565F74"/>
<path d="M28.3132 20L4.6868 20C3.75446 20 3 19.2704 3 18.3743L3 13.6241C3 12.7264 3.75605 12 4.6884 12L28.3132 12C29.244 12 30 12.7264 30 13.6241L30 18.3743C30 19.272 29.244 20 28.3116 20L28.3132 20ZM25.7957 16.4362C26.012 16.44 26.2209 16.358 26.3766 16.2081C26.5324 16.0582 26.6222 15.8527 26.6264 15.6368C26.6264 15.1943 26.2547 14.8358 25.7957 14.8358L20.7067 14.8358C20.5995 14.834 20.4929 14.8532 20.3932 14.8924C20.2934 14.9316 20.2023 14.9901 20.1252 15.0645C20.048 15.1389 19.9863 15.2277 19.9436 15.3259C19.9008 15.4241 19.8779 15.5297 19.876 15.6368C19.8802 15.8527 19.97 16.0582 20.1257 16.2081C20.2815 16.358 20.4904 16.44 20.7067 16.4362L25.7957 16.4362Z" fill="#3B8DFF"/>
<path d="M4.68681 22H28.3132C29.2455 22 30 22.7296 30 23.6257V28.3759C30 29.2736 29.244 30 28.3116 30H4.68681C3.75604 30 3 29.2736 3 28.3759V23.6257C3 22.728 3.75604 22 4.68839 22H4.68681ZM7.20431 25.5638C6.98804 25.56 6.7791 25.642 6.62335 25.7919C6.46761 25.9418 6.37778 26.1473 6.37361 26.3632C6.37361 26.8057 6.74528 27.1642 7.20431 27.1642H12.2933C12.4005 27.166 12.5071 27.1468 12.6068 27.1076C12.7066 27.0684 12.7977 27.0099 12.8748 26.9355C12.952 26.8611 13.0137 26.7723 13.0564 26.6741C13.0992 26.5759 13.1221 26.4703 13.124 26.3632C13.1198 26.1473 13.03 25.9418 12.8743 25.7919C12.7185 25.642 12.5096 25.56 12.2933 25.5638H7.20431Z" fill="#565F74"/>
</svg>
