<svg width="32" height="32" viewBox="0 0 32 32" fill="none" xmlns="http://www.w3.org/2000/svg">
<g clip-path="url(#clip0_93_666)">
<path d="M29.5841 5.552L26.9601 6.512V26.224L29.5841 27.184C30.7521 27.616 31.7761 26.48 31.7761 24.624V8.112C31.7761 6.256 30.7521 5.12 29.5841 5.552ZM10.3041 10.896L3.00812 11.84C2.72012 11.872 2.49612 11.44 2.49612 10.88C2.49612 10.304 2.72012 9.808 3.00812 9.744L10.3041 8.336C10.7361 8.256 11.1041 8.768 11.1041 9.488C11.1041 10.208 10.7521 10.848 10.3041 10.896ZM2.49612 16C2.49612 15.424 2.72012 14.96 3.00812 14.944L6.70412 14.832C7.07212 14.816 7.36012 15.344 7.36012 16C7.36012 16.656 7.05612 17.184 6.70412 17.168L3.00812 17.056C2.72012 17.04 2.49612 16.576 2.49612 16ZM7.82412 23.2L3.00812 22.272C2.72012 22.224 2.49612 21.712 2.49612 21.136C2.49612 20.56 2.72012 20.128 3.00812 20.176L7.82412 20.8C8.20812 20.848 8.52812 21.44 8.52812 22.112C8.52812 22.784 8.20812 23.264 7.82412 23.2ZM12.3521 0.464L1.76012 4.4C0.896121 4.72 0.224121 6.4 0.224121 8.16V23.84C0.224121 25.6 0.896121 27.28 1.76012 27.616L12.3521 31.552C14.0161 32.176 15.4561 30.544 15.4561 27.872V4.144C15.4561 1.472 14.0161 -0.144 12.3521 0.464ZM22.2241 5.552L18.0161 7.104V25.648L22.2241 27.2C23.3921 27.632 24.4161 26.496 24.4161 24.64V8.112C24.4001 6.256 23.3921 5.12 22.2241 5.552Z" fill="#565F74"/>
<path d="M10.3041 10.896L3.00812 11.84C2.72012 11.872 2.49612 11.44 2.49612 10.88C2.49612 10.304 2.72012 9.808 3.00812 9.744L10.3041 8.336C10.7361 8.256 11.1041 8.768 11.1041 9.488C11.1041 10.208 10.7521 10.848 10.3041 10.896ZM2.49612 16C2.49612 15.424 2.72012 14.96 3.00812 14.944L6.70412 14.832C7.07212 14.816 7.36012 15.344 7.36012 16C7.36012 16.656 7.05612 17.184 6.70412 17.168L3.00812 17.056C2.72012 17.04 2.49612 16.576 2.49612 16ZM7.82412 23.2L3.00812 22.272C2.72012 22.224 2.49612 21.712 2.49612 21.136C2.49612 20.56 2.72012 20.128 3.00812 20.176L7.82412 20.8C8.20812 20.848 8.52812 21.44 8.52812 22.112C8.52812 22.784 8.20812 23.264 7.82412 23.2ZM12.3521 0.464L1.76012 4.4C0.896121 4.72 0.224121 6.4 0.224121 8.16V23.84C0.224121 25.6 0.896121 27.28 1.76012 27.616L12.3521 31.552C14.0161 32.176 15.4561 30.544 15.4561 27.872V4.144C15.4561 1.472 14.0161 -0.144 12.3521 0.464Z" fill="#3370FF"/>
</g>
<defs>
<clipPath id="clip0_93_666">
<rect width="32" height="32" fill="white"/>
</clipPath>
</defs>
</svg>
