<svg width="32" height="32" viewBox="0 0 32 32" fill="none" xmlns="http://www.w3.org/2000/svg">
<path d="M31 22.4652C30.9998 23.303 30.3175 23.981 29.5121 23.981H18.9998V26.991L21.9996 28.4955V30H10.0005L9.99419 28.5017L13.0003 26.991V23.981H2.48793C2.29093 23.9798 2.09603 23.9401 1.91455 23.8632C1.73303 23.7862 1.56833 23.6742 1.43011 23.5333C1.2919 23.3924 1.18267 23.2254 1.10889 23.0422C1.03516 22.859 0.998153 22.6627 1.00007 22.4652L1.00007 18H31V22.4652Z" fill="#3370FF"/>
<path d="M29.5121 2C30.334 2.00004 30.9998 2.69962 31 3.56912V16H1V3.57126C1 2.70323 1.68249 2.00016 2.48786 2H29.5121Z" fill="#565F74"/>
</svg>
