<svg width="64" height="64" viewBox="0 0 64 64" fill="none" xmlns="http://www.w3.org/2000/svg">
<path d="M58.9903 25.5715H53.7159C53.2187 24.5 52.5137 22.2713 51.6115 20.6835L55.3367 17.0633C56.5132 15.8869 56.5145 14.0365 55.339 12.8621L51.0864 8.63526C49.9123 7.46104 48.0083 7.47385 46.8318 8.64936L43.3142 12.3801C41.7287 11.4789 39.5001 10.7792 38.4286 10.2822V5.00845C38.4286 3.34581 36.6671 2 35.0074 2H28.9937C27.3331 2 25.5717 3.34581 25.5717 5.00845V10.2832C24.5002 10.7803 22.2725 11.4855 20.6847 12.3863L17.0634 8.66112C15.887 7.48465 14.0353 7.48464 12.8622 8.65886L8.63535 12.9124C7.46218 14.0856 7.47297 15.9896 8.64945 17.1669L12.3811 20.6846C11.479 22.2724 10.7803 24.5001 10.2832 25.5716H5.00982C3.34581 25.5716 2 27.333 2 28.9923V35.0063C2 36.6661 3.34581 38.4284 5.00982 38.4284H10.2842C10.7815 39.4999 11.4875 41.7272 12.3877 43.3154L8.66209 46.9379C7.48562 48.114 7.48562 49.9634 8.66008 51.1379L12.9124 55.3656C14.0855 56.5388 15.9905 56.527 17.1669 55.3506L20.6845 51.6189C22.2723 52.5201 24.5 53.2194 25.5715 53.7168V58.9915C25.5715 60.6542 27.3329 62 28.9923 62H35.0063C36.6661 62 38.4284 60.6542 38.4284 58.9902V53.7158C39.4999 53.2185 41.7272 52.5125 43.3163 51.6114L46.9379 55.3365C48.114 56.513 49.9634 56.513 51.1378 55.3389L55.3656 51.0862C56.5388 49.9121 56.527 48.0082 55.3506 46.8317L51.6189 43.314C52.5201 41.7263 53.2194 39.4999 53.7168 38.4284H58.9915C60.6542 38.4284 62 36.667 62 35.0073V28.9936C62.0001 27.3329 60.6543 25.5715 58.9903 25.5715ZM31.9999 45.5289C24.527 45.5289 18.4692 39.4711 18.4692 31.9988C18.4692 24.5254 24.527 18.4677 31.9999 18.4677C39.4742 18.4677 45.5311 24.5255 45.5311 31.9988C45.5311 39.4711 39.4742 45.5289 31.9999 45.5289Z" fill="#565F74"/>
<circle cx="32" cy="32" r="9" fill="#3370FF"/>
</svg>
