<svg width="64" height="64" viewBox="0 0 64 64" fill="none" xmlns="http://www.w3.org/2000/svg">
<g clip-path="url(#clip0_93_683)">
<path d="M61.9106 23.9686C61.6471 23.9686 61.6471 23.9686 61.9106 23.9686H54.336V40.0311H61.9106C62.9534 40.0311 64 41.0863 63.7402 42.1376C63.7464 42.3816 63.7034 42.6242 63.6136 42.8509C63.5239 43.0775 63.3893 43.2834 63.2182 43.4559C63.047 43.6285 62.8428 43.7641 62.618 43.8546C62.3932 43.9451 62.1526 43.9885 61.9106 43.9822H54.336V48.1953C54.336 51.6188 51.4598 54.5186 48.064 54.5186H43.8852V61.8932C43.8892 62.171 43.838 62.4467 43.7344 62.7041C43.6308 62.9616 43.4771 63.1954 43.2822 63.3918C43.0874 63.5883 42.8555 63.7433 42.6001 63.8477C42.3448 63.9521 42.0713 64.0038 41.7958 63.9997C41.5203 64.0038 41.2467 63.9521 40.9914 63.8477C40.7361 63.7433 40.5041 63.5883 40.3093 63.3918C40.1144 63.1954 39.9607 62.9616 39.8571 62.7041C39.7536 62.4467 39.7023 62.171 39.7064 61.8932V54.5186H24.0339V61.8932C24.0379 62.171 23.9867 62.4467 23.8831 62.7041C23.7795 62.9616 23.6258 63.1954 23.431 63.3918C23.2361 63.5883 23.0042 63.7433 22.7488 63.8477C22.4935 63.9521 22.22 64.0038 21.9445 63.9997C21.6686 64.0043 21.3947 63.953 21.1389 63.8488C20.8832 63.7446 20.6508 63.5897 20.4555 63.3932C20.2603 63.1968 20.1062 62.9627 20.0024 62.705C19.8986 62.4474 19.8472 62.1713 19.8513 61.8932V54.5186H15.6725C14.0164 54.4959 12.4344 53.8224 11.2636 52.6413C10.0928 51.4602 9.42567 49.8649 9.40424 48.1953V43.9822H2.08941C1.04659 43.9822 0.259765 42.9309 0.259765 41.8757C0.259765 40.8206 1.04659 40.0311 2.08941 40.0311H9.664V23.9686H2.08941C1.04659 23.9686 0 23.1791 0 22.124C0 21.0688 0.783059 20.0175 1.82965 20.0175H9.40424V15.8045C9.40424 12.3809 12.2767 9.48116 15.6725 9.48116H19.8513V2.1065C20.1148 1.05515 20.8979 0 21.9445 0C22.9873 0 24.0339 0.79326 24.0339 1.84461V9.48116H39.9661V2.1065C39.9661 1.05515 41.0127 1.08166e-06 42.0555 0.265686C43.1021 0.265686 43.8852 1.05515 43.8852 2.1065V9.74684H48.064C51.4598 9.74684 54.336 12.6428 54.336 16.0664V20.2794H61.9106C62.9534 20.2794 64 21.0688 64 22.124C63.7365 23.1791 62.9534 23.9686 61.9106 23.9686ZM44.9318 24.2343C44.9318 21.3345 42.5788 18.9623 39.7064 18.9623H24.2936C21.4212 18.9623 19.0682 21.3345 19.0682 24.2305V39.7692C19.0682 42.6652 21.4212 45.0374 24.2936 45.0374H39.7064C42.5788 45.0374 44.9318 42.6652 44.9318 39.7692V24.2305V24.2343Z" fill="#565F74"/>
<path d="M40.0814 41.9994H23.9192C23.6655 42.0058 23.4131 41.9612 23.1774 41.8684C22.9417 41.7755 22.7275 41.6364 22.5481 41.4593C22.3686 41.2822 22.2275 41.071 22.1334 40.8384C22.0393 40.6059 21.9941 40.3569 22.0006 40.1066V23.8928C22.0006 22.814 22.8257 22 23.9192 22H40.0814C41.1749 22 42 22.814 42 23.8928V39.8378C42 41.1893 41.1749 41.9994 40.0814 41.9994Z" fill="#3370FF"/>
</g>
<defs>
<clipPath id="clip0_93_683">
<rect width="64" height="64" fill="white"/>
</clipPath>
</defs>
</svg>
