<svg width="64" height="64" viewBox="0 0 64 64" fill="none" xmlns="http://www.w3.org/2000/svg">
<path d="M17.9995 18C25.7534 18 31.9995 24.2462 31.9995 32C31.9995 24.2462 38.2457 18 45.9995 18C45.9995 10.2462 39.7534 4 31.9995 4C24.2457 4 17.9995 10.2462 17.9995 18ZM45.9995 46C38.2457 46 31.9995 39.7539 31.9995 32C31.9995 39.7539 25.7534 46 17.9995 46C17.9995 53.7539 24.2457 60 31.9995 60C39.6995 60 45.9995 53.7 45.9995 46Z" fill="#565F74"/>
<path d="M46 17.9998C46 25.7536 39.7539 31.9998 32 31.9998C39.7539 31.9998 46 38.2459 46 45.9998C53.7539 45.9998 60 39.7536 60 31.9998C60 24.2459 53.7 17.9998 46 17.9998ZM18 45.9998C18 38.2459 24.2462 31.9998 32 31.9998C24.2462 31.9998 18 25.7536 18 17.9998C10.4077 17.9998 4.21538 24.0844 4 31.6228V32.3767C4.21538 39.9152 10.4077 45.9998 18 45.9998Z" fill="#3370FF"/>
</svg>
