<svg width="64" height="64" viewBox="0 0 64 64" fill="none" xmlns="http://www.w3.org/2000/svg">
<g clip-path="url(#clip0_93_689)">
<path d="M31.2516 28.0845V28.0851L62.6822 39.2582C63.7372 39.6502 64.2641 40.7606 63.8686 41.7407C63.6847 42.2371 63.3041 42.6382 62.8142 42.8517L50.8879 48.1442C49.9677 48.5339 49.2357 49.2596 48.845 50.1696L43.7709 62.1268C43.3761 63.1068 42.1896 63.5646 41.2012 63.1726C40.6743 62.9765 40.2788 62.5188 40.0813 61.9964L28.7473 30.5671C28.6568 30.3276 28.6158 30.0723 28.6267 29.8166C28.6376 29.5608 28.7002 29.31 28.8107 29.0791C29.0341 28.6118 29.4389 28.2532 29.9337 28.0845C30.3287 27.8885 30.7901 27.8885 31.2516 28.0845ZM25.9375 0.6875C40.2279 0.6875 51.8125 12.2721 51.8125 26.5625C51.8125 28.8123 51.5254 30.995 50.9857 33.0759L45.8266 31.242C46.1789 29.7393 46.3651 28.1726 46.3651 26.5625C46.3651 15.2806 37.2194 6.13487 25.9375 6.13487C14.6556 6.13487 5.50987 15.2806 5.50987 26.5625C5.50987 37.8444 14.6556 46.9901 25.9375 46.9901C28.1754 46.9901 30.3294 46.6302 32.3445 45.9652L34.1935 51.0924C31.6006 51.9647 28.8243 52.4375 25.9375 52.4375C11.6471 52.4375 0.0625 40.8529 0.0625 26.5625C0.0625 12.2721 11.6471 0.6875 25.9375 0.6875ZM25.9062 11.5625C34.1732 11.5625 40.875 18.2642 40.875 26.5312C40.875 27.5011 40.7827 28.4494 40.6066 29.3679L29.3416 25.3634V25.3627C28.7381 25.1064 28.1345 25.1064 27.6179 25.3627C26.9708 25.5834 26.4412 26.0523 26.1492 26.6635C26.0072 26.9601 25.9257 27.2819 25.9093 27.6103C25.893 27.9387 25.9421 28.267 26.0539 28.5763L26.0662 28.6096L30.4603 40.7946C29.0244 41.2528 27.4942 41.5 25.9062 41.5C17.6392 41.5 10.9375 34.7982 10.9375 26.5312C10.9375 18.2642 17.6392 11.5625 25.9062 11.5625Z" fill="#565F74"/>
<path d="M31.2516 28.0845L62.6823 39.2582C63.7373 39.6502 64.2641 40.7606 63.8686 41.7407C63.6848 42.2371 63.3041 42.6382 62.8143 42.8517L50.8879 48.1442C49.9677 48.5339 49.2358 49.2596 48.845 50.1696L43.7709 62.1268C43.3761 63.1068 42.1896 63.5646 41.2012 63.1726C40.6743 62.9765 40.2788 62.5188 40.0813 61.9964L28.7473 30.5671C28.6569 30.3276 28.6158 30.0723 28.6267 29.8166C28.6376 29.5608 28.7002 29.31 28.8107 29.0791C29.0341 28.6118 29.4389 28.2532 29.9338 28.0845C30.3287 27.8885 30.7901 27.8885 31.2516 28.0845Z" fill="#3370FF"/>
</g>
<defs>
<clipPath id="clip0_93_689">
<rect width="64" height="64" fill="white"/>
</clipPath>
</defs>
</svg>
