<svg width="22" height="24" viewBox="0 0 22 24" fill="none" xmlns="http://www.w3.org/2000/svg">
<path d="M19.6678 0H2.39544C1.52842 0 0.82309 0.670182 0.82309 1.49502V23.9977L11.0305 20.86L21.2402 24V1.49502C21.2402 0.670182 20.5372 0 19.6678 0ZM11.8764 16.314C11.6491 16.5413 11.3679 16.6538 11.0328 16.6538C10.6954 16.6538 10.4142 16.5413 10.1892 16.314C9.96193 16.0867 9.84945 15.8125 9.84945 15.4892C9.84945 15.1517 9.96193 14.8705 10.1892 14.6456C10.4165 14.4183 10.6977 14.3058 11.0328 14.3058C11.3702 14.3058 11.6514 14.4183 11.8764 14.6456C12.1037 14.8729 12.2162 15.1541 12.2162 15.4892C12.2162 15.8149 12.1037 16.089 11.8764 16.314ZM14.9016 8.26011C14.7844 8.71236 14.6321 9.12712 14.3486 9.4833C14.065 9.83948 13.7534 10.1605 13.4159 10.4441C13.0785 10.7299 12.7762 10.9877 12.5044 11.2197C12.2326 11.4517 12.1037 11.6719 12.1154 11.8805V12.3468C12.1295 12.5788 12.0475 12.7873 11.8717 12.9678C11.696 13.1482 11.4616 13.2466 11.164 13.2583C10.8664 13.2443 10.6274 13.1506 10.447 12.9772C10.2666 12.8014 10.2244 12.6608 10.1752 12.4241C10.1166 12.1383 10.1564 11.686 10.1564 11.686C10.1681 11.4282 10.2431 11.1869 10.379 10.969C10.5149 10.7487 10.6837 10.5448 10.8828 10.3574C11.0844 10.1699 11.2976 9.98946 11.5226 9.81371C11.7499 9.63796 11.9631 9.46456 12.1623 9.28881C12.3638 9.11306 12.5278 8.93263 12.6567 8.74517C12.7856 8.5577 12.8512 8.35384 12.8512 8.13357C12.877 7.69303 12.7153 7.32748 12.3661 7.03691C12.017 6.74634 11.5507 6.60105 10.9695 6.60105C10.6719 6.60105 10.4025 6.67135 10.1635 6.81429C9.92444 6.95724 9.72057 7.13064 9.55185 7.33919C9.38314 7.5454 9.25191 7.76333 9.15349 7.98828C9.05742 8.21558 9.00821 8.40539 9.00821 8.56005C9.00821 8.81781 8.91214 9.01699 8.71764 9.1529C8.52315 9.28881 8.30991 9.35442 8.07792 9.34739C7.84594 9.34036 7.62801 9.26069 7.42883 9.10603C7.22731 8.95138 7.12186 8.70533 7.1078 8.3679C7.09608 8.08436 7.15232 7.73052 7.28355 7.31107C7.41243 6.89162 7.63973 6.48389 7.9631 6.08787C8.28648 5.6942 8.71061 5.35677 9.23551 5.07791C9.76041 4.79906 10.4165 4.66081 11.2062 4.66081C11.8413 4.66081 12.3943 4.75454 12.8653 4.942C13.3386 5.12947 13.7229 5.38254 14.0205 5.69889C14.3181 6.01523 14.5407 6.24019 14.7704 6.81664C15.0188 7.43761 14.9719 7.98125 14.9016 8.26011Z" fill="#3370FF"/>
</svg>
